<?xml version='1.0' encoding='UTF-8'?>
<svg viewBox="-8 -4 32 32" xmlns="http://www.w3.org/2000/svg" xmlns:xlink="http://www.w3.org/1999/xlink">
  <g id="Layer_1" transform="translate(-8, -4)" style="enable-background:new 0 0 32 32">
    <g id="PhoneIphone">
      <path d="M22, 4L10, 4C8.9, 4 8, 4.9 8, 6L8, 26C8, 27.1 8.9, 28 10, 28L22, 28C23.1, 28 24, 27.1 24, 26L24, 6C24, 4.9 23.1, 4 22, 4zM16, 26C14.9, 26 14, 25.1 14, 24C14, 22.9 14.9, 22 16, 22C17.1, 22 18, 22.9 18, 24C18, 25.1 17.1, 26 16, 26zM22, 20L10, 20L10, 8L22, 8L22, 20z" fill="#727272" style="fill:#FF6100" />
    </g>
  </g>
</svg>